inDegrees=no
num_controls=7
num_derivatives=13
num_iterations=121
num_multipliers=7
num_parameters=0
num_slacks=7
num_states=26
objective=5.625546
objective_accelerations=0.643112
objective_balance=0.051011
objective_effort=0.515625
objective_height=4.374543
objective_ligament=0.041255
solver_duration=1462.434448
status=Solve_Succeeded
success=true
DataType=double
version=3
OpenSimVersion=4.4-2022-07-23-0e9fedc
endheader
time	/jointset/ground_pelvis/pelvis_tilt/value	/jointset/ground_pelvis/pelvis_tx/value	/jointset/ground_pelvis/pelvis_ty/value	/jointset/hip_l/hip_flexion_l/value	/jointset/hip_l/hip_adduction_l/value	/jointset/hip_l/hip_rotation_l/value	/jointset/back/lumbar_extension/value	/jointset/patellofemoral_l/patellar_flexion_l/value	/jointset/knee_l/knee_flexion_l/value	/jointset/knee_l/knee_adduction_l/value	/jointset/knee_l/knee_rotation_l/value	/jointset/ankle_l/ankle_angle_l/value	/jointset/subtalar_l/subtalar_angle_l/value	/jointset/ground_pelvis/pelvis_tilt/speed	/jointset/ground_pelvis/pelvis_tx/speed	/jointset/ground_pelvis/pelvis_ty/speed	/jointset/hip_l/hip_flexion_l/speed	/jointset/hip_l/hip_adduction_l/speed	/jointset/hip_l/hip_rotation_l/speed	/jointset/back/lumbar_extension/speed	/jointset/patellofemoral_l/patellar_flexion_l/speed	/jointset/knee_l/knee_flexion_l/speed	/jointset/knee_l/knee_adduction_l/speed	/jointset/knee_l/knee_rotation_l/speed	/jointset/ankle_l/ankle_angle_l/speed	/jointset/subtalar_l/subtalar_angle_l/speed	/forceset/tau_hip_flexion_l	/forceset/tau_hip_adduction_l	/forceset/tau_hip_rotation_l	/forceset/tau_knee_flexion_l	/forceset/tau_ankle_angle_l	/forceset/tau_subtalar_angle_l	/forceset/tau_lumbar_extension	lambda_cid13_p0	lambda_cid13_p1	lambda_cid13_p2	lambda_cid13_p3	lambda_cid13_p4	lambda_cid13_p5	lambda_cid14_p0	/jointset/ground_pelvis/pelvis_tilt/accel	/jointset/ground_pelvis/pelvis_tx/accel	/jointset/ground_pelvis/pelvis_ty/accel	/jointset/hip_l/hip_flexion_l/accel	/jointset/hip_l/hip_adduction_l/accel	/jointset/hip_l/hip_rotation_l/accel	/jointset/back/lumbar_extension/accel	/jointset/patellofemoral_l/patellar_flexion_l/accel	/jointset/knee_l/knee_flexion_l/accel	/jointset/knee_l/knee_adduction_l/accel	/jointset/knee_l/knee_rotation_l/accel	/jointset/ankle_l/ankle_angle_l/accel	/jointset/subtalar_l/subtalar_angle_l/accel	gamma_cid13_p0	gamma_cid13_p1	gamma_cid13_p2	gamma_cid13_p3	gamma_cid13_p4	gamma_cid13_p5	gamma_cid14_p0
1.5	-0.5088048500238135	-0.1162296927028414	0.7479387219322254	1.359532079761693	-0.3106506703355408	-0.06331439621628206	-0.3559493464089611	0.6405850799157727	0.6405850799159146	-0.1741368857400468	0.1684860044092094	-0.05140643116669294	-0.06697320614733736	0.899627467925084	0.3476470097827348	0.5299364354739222	-2.547194970871479	0.05890940382025538	-0.5081103196750392	0.5469411126428677	-1.601869006453409	-1.601869006453696	0.001422676918663776	-0.03361046925774858	-0.01581269620558949	0.07087184830617624	-0.2836276967322742	0.02333360969868966	-0.01866016220260741	-0.1883923803167642	0.2011143036943548	0.02916561354215764	0.2464180373819499	24.62762136130376	-19.29179955083423	5.315287268877303	-9.859825860699727	-613.5946621088131	-48.78388936662842	-30.86768720878879	0.7699726262423521	0.8455046969963064	-0.2331437642539591	-1.832774692492322	0.4593150130218613	-0.1652589400330526	1.969811252931516	-1.070962435940394	-1.07096243594042	0.02705506254351481	-0.1004688529331833	0.07902007420415086	0.4613575518261359	-1.28077960179484e-08	7.229880923243845e-07	-2.101022975621262e-07	1.461672787364477e-07	1.731736652323656e-07	-1.898295335492012e-07	1.301895795075043e-07
1.51	-0.4997704775636706	-0.1127111619430493	0.7532254276628895	1.333970722626886	-0.3100395774676082	-0.06840387331943416	-0.3503828015021068	0.6245150794043007	0.6245150794045431	-0.174122743398803	0.1681462758502409	-0.05156053821089027	-0.06624236689834741	0.9071247364047517	0.3560269532403301	0.5273003828518897	-2.564745828810745	0.06330732819364487	-0.5097091381981399	0.5663163888592574	-1.611913860843177	-1.611913860843239	0.001396104325789043	-0.03434096544270433	-0.01498374927354496	0.07529599675529794	-0.2747309841380126	0.0228771844826923	-0.01850298847550698	-0.1871212238520794	0.1989137146927492	0.0283923674110726	0.239716663826071	24.2008486277844	-18.9954552425011	5.398487294812069	-9.606617416744507	-608.6608422767619	-49.00226797104288	-31.71337211305998	0.721270426149958	0.8294425827079268	-0.2944473282652372	-1.666634682328073	0.4296544350317129	-0.1456479686673931	1.913663823486559	-0.9386884712531316	-0.9386884712198885	-0.01882057853847659	-0.06009971437348761	0.08857296069183206	0.4328410095028634	-1.957551839428741e-08	7.743714507662013e-07	-2.010423916351363e-07	1.544691015391769e-07	1.837945135806922e-07	-1.794259679685203e-07	1.326341474361014e-07
1.52	-0.4906647991252865	-0.109109791066173	0.758482650603916	1.308243778245131	-0.3093845806988071	-0.07350702953964776	-0.3446240482295949	0.6083511420429489	0.6083511420430064	-0.1741091282156301	0.1677990903865089	-0.05170560759413442	-0.06546730666125923	0.913888663577245	0.3642150331995871	0.5240398775464494	-2.580312420257536	0.06769018398819591	-0.5108461431298796	0.5853827857755191	-1.620656376463268	-1.620656376463105	0.001317245399631197	-0.03510185015151641	-0.01400516402198055	0.07971604592636956	-0.2658342715435141	0.02242075926737871	-0.01834581475162512	-0.1858500673866446	0.1967131256915019	0.02761912128071809	0.2330152902701344	23.76414346060795	-18.69895954034141	5.483476598283701	-9.318949737119112	-603.8676483110956	-49.2666683522067	-32.53730272412834	0.623304364806485	0.8071319973299858	-0.3580343009352309	-1.435921393996775	0.4563012972542056	-0.07289622176052432	1.9080353929048	-0.8104946820046858	-0.8104946820046335	0.01659779588638773	-0.1065465577041235	0.1089477381101211	0.4605376962162859	-2.652898774780243e-08	8.227550989492106e-07	-1.900072665463207e-07	1.619881859678512e-07	1.943605530107515e-07	-1.675427619333249e-07	1.342434448085733e-07
1.53	-0.4814951662505235	-0.1054275765315547	0.7637041844084937	1.282371128569881	-0.3086858607324333	-0.07861958453860675	-0.3386763718604233	0.5921063716874162	0.5921063716875622	-0.1740964201379633	0.1674444128028282	-0.05184013751116435	-0.06464809184608555	0.9199078011805818	0.3721869504135547	0.5201653917583094	-2.59387085433935	0.07205151646336871	-0.5116058306251962	0.6040865696934681	-1.628069366786282	-1.628069366786127	0.00122998832491088	-0.03582547045111052	-0.01287449442804459	0.08412688622363489	-0.2568247824224737	0.02179638311081323	-0.01821747562012172	-0.1845574361632528	0.1945414268238103	0.02672699050767299	0.2261617702847739	23.33649148481756	-18.35579187970556	5.564879695351533	-9.019019687902249	-599.0182322709396	-49.45834429505708	-33.33587578392159	0.571709649307815	0.7861175417964202	-0.4173373598628761	-1.263794413201317	0.425586635884577	-0.0684952459640593	1.841662133892151	-0.67247909919675	-0.6724790991984301	-0.02038234181551979	-0.05394118895830332	0.1190714894090154	0.4312335579383312	-3.367981326456694e-08	8.679515549822371e-07	-1.768734710980653e-07	1.686756108740922e-07	2.048683579651518e-07	-1.540874379152081e-07	1.349652672151624e-07
1.54	-0.4722692437615011	-0.1016668636331281	0.7688839370267694	1.256373296554295	-0.3079436199586274	-0.08373793445893815	-0.3325436352035234	0.5757943158503624	0.575794315850456	-0.1740843836076967	0.1670827647315676	-0.05196257174834896	-0.06378479335565013	0.9251465864324279	0.3799147059612309	0.5156836402860208	-2.605348888338327	0.07639434546784468	-0.5120051274223332	0.6223948433176344	-1.634113472779192	-1.634113472779047	0.001182935943704823	-0.03649594766557009	-0.011586028059141	0.08853278097919692	-0.2478152933007357	0.0211720069546516	-0.0180891364891291	-0.1832648049396346	0.1923697279562468	0.02583485973504073	0.2193082502999925	22.89861371910112	-18.01216438554016	5.647729310053086	-8.680021217955806	-594.3109608965336	-49.69623712292218	-34.10557792335032	0.4672338945067763	0.7582996640730465	-0.4794874377646924	-1.019841377429544	0.45260060311475	-0.000818082124286319	1.828933334146874	-0.5367178159837661	-0.5367178159837706	0.02463873458882826	-0.09591794067696464	0.1405070931057033	0.4595485878758637	-4.127839313321193e-08	9.123349799682123e-07	-1.628821215137364e-07	1.747331634888699e-07	2.150038468523208e-07	-1.394942622157359e-07	1.351058501196472e-07
1.55	-0.4629948424771843	-0.09783017352929298	0.774015884995895	1.23027110058386	-0.3071581106329279	-0.08885857392342808	-0.3262300026750439	0.5594286948806326	0.5594286948808574	-0.1740726806164117	0.1667147666059308	-0.05207134986331215	-0.06287752609209424	0.929598257044343	0.3873736723854099	0.5106084550957593	-2.614731634347955	0.08069905494741939	-0.51205712913323	0.6402485449956544	-1.638775629778302	-1.638775629778262	0.001156627682140581	-0.03709890377021983	-0.01014423706637954	0.0929146546923848	-0.238733824479076	0.02036891619482352	-0.01799417100325062	-0.1819770851471078	0.1902767362895498	0.02482530176826527	0.2123387226841259	22.48211148638704	-17.62426728946562	5.726932313997132	-8.339031641456186	-589.6074843052232	-49.86533041207949	-34.8428306963341	0.4138266474385965	0.7322853779857934	-0.5361128048072802	-0.843682044257469	0.4179997949545277	0.002612747279683636	1.751120974356039	-0.3957277906695699	-0.3957277906857576	-0.01624260047244164	-0.04166986688662015	0.1498144607846353	0.4264681195384114	-4.939286388554526e-08	9.557816517912807e-07	-1.479027204248011e-07	1.800649936808748e-07	2.247103628794191e-07	-1.235900834920936e-07	1.345767440325773e-07
1.56	-0.4536799858861905	-0.09392037571194188	0.7790941653640899	1.204085838987161	-0.3063298354774818	-0.09397773261238482	-0.3197403266517996	0.5430234997112477	0.5430234997113447	-0.174061236106726	0.1663409018348562	-0.05216495019663912	-0.06192664782010874	0.9332376477725693	0.3945362486644194	0.504950120099891	-2.621962013618719	0.08494751140990141	-0.5117089723299889	0.6576035422628742	-1.642028312729233	-1.642028312729299	0.001131239662921187	-0.03766927673598102	-0.00855047173667392	0.09725498266552442	-0.2296523556561758	0.01956582543539359	-0.01789920551835481	-0.180689365354304	0.1881837446229116	0.02381574380188525	0.205369195069428	22.05516268372557	-17.23552403491028	5.807123123018998	-7.955043718212077	-585.0469369321165	-50.07997716558967	-35.54420026486686	0.3047779177671468	0.6990216350405776	-0.596117398885768	-0.5893680296566379	0.4413499996962448	0.07921362070362956	1.729192451985186	-0.2548230063476389	-0.2548230063476484	0.02482278305744839	-0.08940131289903465	0.1709019604967003	0.4512394398665068	-5.516978575439057e-08	9.943793114653036e-07	-1.397116330789548e-07	1.814634290379139e-07	2.382445451083119e-07	-1.081115923472969e-07	1.343017434805715e-07
1.57	-0.4443328432016639	-0.08994053703477486	0.7841129929448722	1.177839127272036	-0.3054594049399076	-0.09909147305894728	-0.3130798689509953	0.5265928514956177	0.5265928514956649	-0.1740500798761969	0.16596153346998	-0.0522419044952881	-0.06093262748143614	0.93604687761243	0.4013709418786281	0.4987210573848803	-2.626998812797362	0.08912578677245682	-0.5109689602252727	0.674380953579398	-1.643852843742175	-1.643852843742162	0.001099189622117033	-0.0382010666187179	-0.006816453012543186	0.1015387255982788	-0.2204320444653251	0.01855931852219199	-0.01785210700999756	-0.1794789394078363	0.1862472192517859	0.02267826604502853	0.1982251620406336	21.67425860370733	-16.80208046467607	5.883377995179115	-7.570976981214281	-580.4792589911102	-50.23156566252857	-36.20625022588404	0.2473960626799531	0.6666466189655118	-0.650398085736927	-0.4036019374340484	0.4039965894987266	0.08208019206994305	1.635958820768048	-0.1090220221075233	-0.1090220220958937	-0.0171534726394792	-0.03446612405953479	0.1782373315854216	0.4152415751187348	-5.802477151887589e-08	1.02691570595302e-06	-1.400059379119698e-07	1.779451208512459e-07	2.565633100894478e-07	-9.316521067605725e-08	1.343443748473961e-07
1.58	-0.4349619281096479	-0.08589416073459982	0.7890667104229211	1.151553494350184	-0.3045476055916834	-0.1041956763470453	-0.306254848467129	0.5101514071951019	0.5101514071951723	-0.1740392310609372	0.1655769675469821	-0.05230080150608951	-0.0598961097424098	0.9379921292758387	0.4078437732660249	0.4919280995532028	-2.629746254994621	0.09322127353342693	-0.5098015406519744	0.69051609886736	-1.644187529688749	-1.644187529688656	0.001069756581775248	-0.03870878842543787	-0.004939014159836884	0.1057544627366125	-0.2112117332730855	0.01755281160941774	-0.01780500849982128	-0.1782685134614621	0.1843106938807072	0.0215407882885836	0.1910811290131332	21.28354588316825	-16.36745929941764	5.960061679476778	-7.145217428608962	-576.0448006633242	-50.42704310536461	-36.82716829634006	0.1319822824748426	0.6266492696796121	-0.7088964222188229	-0.1314966333797183	0.4247922793790361	0.1646951144203998	1.600739246271183	0.04314600692639688	0.04314600692639785	0.0253461831496946	-0.08458769769547082	0.1995859862139748	0.4376382809827296	-5.54078757324605e-08	1.046883901532649e-06	-1.545350055722711e-07	1.669539966161117e-07	2.816631995596459e-07	-7.963018043357221e-08	1.35185432569442e-07
